<mxfile host="Electron" modified="2024-05-20T13:33:39.771Z" agent="Mozilla/5.0 (X11; Linux x86_64) AppleWebKit/537.36 (KHTML, like Gecko) draw.io/21.2.8 Chrome/112.0.5615.165 Electron/24.2.0 Safari/537.36" etag="NDpQy3POJwUim7izm9LT" version="21.2.8" type="device">
  <diagram name="Page-1" id="ALw_MDhqohX1xxtP-h8G">
    <mxGraphModel dx="1964" dy="916" grid="1" gridSize="10" guides="1" tooltips="1" connect="1" arrows="1" fold="1" page="1" pageScale="1" pageWidth="850" pageHeight="1100" math="0" shadow="0">
      <root>
        <mxCell id="0" />
        <mxCell id="1" parent="0" />
        <mxCell id="_dWFU71Mj2mj00j4ognk-1" value="" style="edgeStyle=orthogonalEdgeStyle;rounded=0;orthogonalLoop=1;jettySize=auto;html=1;endArrow=none;endFill=0;" edge="1" parent="1" source="_dWFU71Mj2mj00j4ognk-2" target="_dWFU71Mj2mj00j4ognk-12">
          <mxGeometry relative="1" as="geometry" />
        </mxCell>
        <mxCell id="_dWFU71Mj2mj00j4ognk-2" value="Transparency-API" style="verticalAlign=top;align=left;shape=cube;size=10;direction=south;fontStyle=0;html=1;boundedLbl=1;spacingLeft=5;whiteSpace=wrap;fillColor=#ffe6cc;strokeColor=#d79b00;" vertex="1" parent="1">
          <mxGeometry x="220" y="515" width="130" height="70" as="geometry" />
        </mxCell>
        <mxCell id="_dWFU71Mj2mj00j4ognk-3" value="" style="edgeStyle=orthogonalEdgeStyle;rounded=0;orthogonalLoop=1;jettySize=auto;html=1;endArrow=none;endFill=0;" edge="1" parent="1" source="_dWFU71Mj2mj00j4ognk-4" target="_dWFU71Mj2mj00j4ognk-13">
          <mxGeometry relative="1" as="geometry" />
        </mxCell>
        <mxCell id="_dWFU71Mj2mj00j4ognk-4" value="Decision-API" style="verticalAlign=top;align=left;shape=cube;size=10;direction=south;fontStyle=0;html=1;boundedLbl=1;spacingLeft=5;whiteSpace=wrap;fillColor=#ffe6cc;strokeColor=#d79b00;" vertex="1" parent="1">
          <mxGeometry x="420" y="515" width="130" height="70" as="geometry" />
        </mxCell>
        <mxCell id="_dWFU71Mj2mj00j4ognk-5" style="edgeStyle=orthogonalEdgeStyle;rounded=0;orthogonalLoop=1;jettySize=auto;html=1;exitX=0;exitY=0;exitDx=70;exitDy=70;exitPerimeter=0;entryX=0;entryY=0;entryDx=0;entryDy=60;entryPerimeter=0;endArrow=none;endFill=0;" edge="1" parent="1" source="_dWFU71Mj2mj00j4ognk-8" target="_dWFU71Mj2mj00j4ognk-2">
          <mxGeometry relative="1" as="geometry" />
        </mxCell>
        <mxCell id="_dWFU71Mj2mj00j4ognk-6" style="edgeStyle=orthogonalEdgeStyle;rounded=0;orthogonalLoop=1;jettySize=auto;html=1;exitX=0;exitY=0;exitDx=70;exitDy=70;exitPerimeter=0;entryX=0;entryY=0;entryDx=0;entryDy=60;entryPerimeter=0;endArrow=none;endFill=0;" edge="1" parent="1" source="_dWFU71Mj2mj00j4ognk-8" target="_dWFU71Mj2mj00j4ognk-4">
          <mxGeometry relative="1" as="geometry" />
        </mxCell>
        <mxCell id="_dWFU71Mj2mj00j4ognk-7" value="" style="edgeStyle=orthogonalEdgeStyle;rounded=0;orthogonalLoop=1;jettySize=auto;html=1;entryX=0;entryY=0;entryDx=50;entryDy=120;entryPerimeter=0;endArrow=none;endFill=0;" edge="1" parent="1" source="_dWFU71Mj2mj00j4ognk-8" target="_dWFU71Mj2mj00j4ognk-14">
          <mxGeometry relative="1" as="geometry" />
        </mxCell>
        <mxCell id="_dWFU71Mj2mj00j4ognk-8" value="AICockpit" style="verticalAlign=top;align=left;shape=cube;size=10;direction=south;fontStyle=0;html=1;boundedLbl=1;spacingLeft=5;whiteSpace=wrap;fillColor=#ffe6cc;strokeColor=#d79b00;" vertex="1" parent="1">
          <mxGeometry x="330" y="370" width="130" height="90" as="geometry" />
        </mxCell>
        <mxCell id="_dWFU71Mj2mj00j4ognk-9" value="&amp;lt;&amp;lt;container&amp;gt;&amp;gt;" style="text;html=1;strokeColor=none;fillColor=none;align=center;verticalAlign=middle;whiteSpace=wrap;rounded=0;" vertex="1" parent="1">
          <mxGeometry x="220" y="565" width="120" height="20" as="geometry" />
        </mxCell>
        <mxCell id="_dWFU71Mj2mj00j4ognk-10" value="&amp;lt;&amp;lt;container&amp;gt;&amp;gt;" style="text;html=1;strokeColor=none;fillColor=none;align=center;verticalAlign=middle;whiteSpace=wrap;rounded=0;" vertex="1" parent="1">
          <mxGeometry x="420" y="565" width="120" height="20" as="geometry" />
        </mxCell>
        <mxCell id="_dWFU71Mj2mj00j4ognk-11" value="&amp;lt;&amp;lt;container&amp;gt;&amp;gt;" style="text;html=1;strokeColor=none;fillColor=none;align=center;verticalAlign=middle;whiteSpace=wrap;rounded=0;" vertex="1" parent="1">
          <mxGeometry x="330" y="434" width="120" height="30" as="geometry" />
        </mxCell>
        <mxCell id="_dWFU71Mj2mj00j4ognk-12" value="Sample&lt;br&gt;Data" style="shape=note2;boundedLbl=1;whiteSpace=wrap;html=1;size=25;verticalAlign=top;align=left;spacingLeft=5;fillColor=#ffe6cc;strokeColor=#d79b00;" vertex="1" parent="1">
          <mxGeometry x="240" y="640" width="90" height="60" as="geometry" />
        </mxCell>
        <mxCell id="_dWFU71Mj2mj00j4ognk-13" value="Sample&lt;br&gt;Data" style="shape=note2;boundedLbl=1;whiteSpace=wrap;html=1;size=25;verticalAlign=top;align=left;spacingLeft=5;fillColor=#ffe6cc;strokeColor=#d79b00;" vertex="1" parent="1">
          <mxGeometry x="440" y="640" width="90" height="60" as="geometry" />
        </mxCell>
        <mxCell id="_dWFU71Mj2mj00j4ognk-14" value="DB" style="verticalAlign=top;align=left;shape=cube;size=10;direction=south;fontStyle=0;html=1;boundedLbl=1;spacingLeft=5;whiteSpace=wrap;container=1;fillColor=#dae8fc;strokeColor=#6c8ebf;" vertex="1" parent="1">
          <mxGeometry x="530" y="365" width="120" height="90" as="geometry" />
        </mxCell>
        <mxCell id="_dWFU71Mj2mj00j4ognk-15" value="" style="shape=cylinder3;whiteSpace=wrap;html=1;boundedLbl=1;backgroundOutline=1;size=15;" vertex="1" parent="_dWFU71Mj2mj00j4ognk-14">
          <mxGeometry x="40" y="20" width="50" height="60" as="geometry" />
        </mxCell>
        <mxCell id="_dWFU71Mj2mj00j4ognk-16" value="" style="edgeStyle=orthogonalEdgeStyle;rounded=0;orthogonalLoop=1;jettySize=auto;html=1;entryX=0;entryY=0;entryDx=50;entryDy=130;entryPerimeter=0;" edge="1" parent="1" source="_dWFU71Mj2mj00j4ognk-17" target="_dWFU71Mj2mj00j4ognk-8">
          <mxGeometry relative="1" as="geometry" />
        </mxCell>
        <mxCell id="_dWFU71Mj2mj00j4ognk-17" value="Keycloak" style="verticalAlign=top;align=left;shape=cube;size=10;direction=south;fontStyle=0;html=1;boundedLbl=1;spacingLeft=5;whiteSpace=wrap;fillColor=#dae8fc;strokeColor=#6c8ebf;" vertex="1" parent="1">
          <mxGeometry x="130" y="375" width="130" height="90" as="geometry" />
        </mxCell>
        <mxCell id="_dWFU71Mj2mj00j4ognk-18" value="&amp;lt;&amp;lt;container&amp;gt;&amp;gt;" style="text;html=1;strokeColor=none;fillColor=none;align=center;verticalAlign=middle;whiteSpace=wrap;rounded=0;" vertex="1" parent="1">
          <mxGeometry x="130" y="435" width="120" height="30" as="geometry" />
        </mxCell>
        <mxCell id="_dWFU71Mj2mj00j4ognk-19" value="" style="edgeStyle=orthogonalEdgeStyle;rounded=0;orthogonalLoop=1;jettySize=auto;html=1;" edge="1" parent="1" source="_dWFU71Mj2mj00j4ognk-20" target="_dWFU71Mj2mj00j4ognk-8">
          <mxGeometry relative="1" as="geometry" />
        </mxCell>
        <mxCell id="_dWFU71Mj2mj00j4ognk-20" value="Operator" style="shape=umlActor;verticalLabelPosition=top;verticalAlign=bottom;html=1;labelPosition=center;align=center;" vertex="1" parent="1">
          <mxGeometry x="380" y="230" width="30" height="60" as="geometry" />
        </mxCell>
        <mxCell id="_dWFU71Mj2mj00j4ognk-21" value="" style="edgeStyle=orthogonalEdgeStyle;rounded=0;orthogonalLoop=1;jettySize=auto;html=1;endArrow=none;endFill=0;fillColor=#f5f5f5;strokeColor=#242424;dashed=1;" edge="1" parent="1" source="_dWFU71Mj2mj00j4ognk-22" target="_dWFU71Mj2mj00j4ognk-15">
          <mxGeometry relative="1" as="geometry" />
        </mxCell>
        <mxCell id="_dWFU71Mj2mj00j4ognk-22" value="Schema v1.0.1" style="shape=note2;boundedLbl=1;whiteSpace=wrap;html=1;size=25;verticalAlign=top;align=left;spacingLeft=5;fillColor=#fff2cc;strokeColor=#d6b656;" vertex="1" parent="1">
          <mxGeometry x="690" y="385" width="90" height="60" as="geometry" />
        </mxCell>
        <mxCell id="_dWFU71Mj2mj00j4ognk-23" value="" style="edgeStyle=orthogonalEdgeStyle;rounded=0;orthogonalLoop=1;jettySize=auto;html=1;endArrow=none;endFill=0;fillColor=#f5f5f5;strokeColor=#242424;dashed=1;" edge="1" parent="1" source="_dWFU71Mj2mj00j4ognk-24" target="_dWFU71Mj2mj00j4ognk-18">
          <mxGeometry relative="1" as="geometry" />
        </mxCell>
        <mxCell id="_dWFU71Mj2mj00j4ognk-24" value="RealmConfig v1.0.1" style="shape=note2;boundedLbl=1;whiteSpace=wrap;html=1;size=25;verticalAlign=top;align=left;spacingLeft=5;fillColor=#fff2cc;strokeColor=#d6b656;" vertex="1" parent="1">
          <mxGeometry x="-20" y="420" width="90" height="60" as="geometry" />
        </mxCell>
        <mxCell id="_dWFU71Mj2mj00j4ognk-25" value="" style="rounded=0;orthogonalLoop=1;jettySize=auto;html=1;entryX=0;entryY=0;entryDx=0;entryDy=60;entryPerimeter=0;endArrow=none;endFill=0;fillColor=#f5f5f5;strokeColor=#242424;dashed=1;" edge="1" parent="1" source="_dWFU71Mj2mj00j4ognk-26" target="_dWFU71Mj2mj00j4ognk-8">
          <mxGeometry relative="1" as="geometry" />
        </mxCell>
        <mxCell id="_dWFU71Mj2mj00j4ognk-26" value="Translation v1.0.1" style="shape=note2;boundedLbl=1;whiteSpace=wrap;html=1;size=25;verticalAlign=top;align=left;spacingLeft=5;fillColor=#fff2cc;strokeColor=#d6b656;" vertex="1" parent="1">
          <mxGeometry x="510" y="270" width="90" height="60" as="geometry" />
        </mxCell>
        <mxCell id="_dWFU71Mj2mj00j4ognk-27" value="" style="edgeStyle=orthogonalEdgeStyle;rounded=0;orthogonalLoop=1;jettySize=auto;html=1;endArrow=none;endFill=0;dashed=1;" edge="1" parent="1" source="_dWFU71Mj2mj00j4ognk-28" target="_dWFU71Mj2mj00j4ognk-4">
          <mxGeometry relative="1" as="geometry" />
        </mxCell>
        <mxCell id="_dWFU71Mj2mj00j4ognk-28" value="API Definition v1.0.0" style="shape=note2;boundedLbl=1;whiteSpace=wrap;html=1;size=25;verticalAlign=top;align=left;spacingLeft=5;fillColor=#fff2cc;strokeColor=#d6b656;" vertex="1" parent="1">
          <mxGeometry x="660" y="520" width="90" height="60" as="geometry" />
        </mxCell>
        <mxCell id="_dWFU71Mj2mj00j4ognk-29" value="" style="edgeStyle=orthogonalEdgeStyle;rounded=0;orthogonalLoop=1;jettySize=auto;html=1;entryX=0;entryY=0;entryDx=0;entryDy=0;endArrow=none;endFill=0;dashed=1;" edge="1" parent="1" source="_dWFU71Mj2mj00j4ognk-30" target="_dWFU71Mj2mj00j4ognk-9">
          <mxGeometry relative="1" as="geometry">
            <Array as="points">
              <mxPoint x="200" y="560" />
              <mxPoint x="200" y="560" />
            </Array>
          </mxGeometry>
        </mxCell>
        <mxCell id="_dWFU71Mj2mj00j4ognk-30" value="API Definition v1.0.0" style="shape=note2;boundedLbl=1;whiteSpace=wrap;html=1;size=25;verticalAlign=top;align=left;spacingLeft=5;fillColor=#fff2cc;strokeColor=#d6b656;" vertex="1" parent="1">
          <mxGeometry x="40" y="530" width="90" height="60" as="geometry" />
        </mxCell>
        <mxCell id="_dWFU71Mj2mj00j4ognk-31" value="" style="shape=flexArrow;endArrow=classic;html=1;rounded=0;" edge="1" parent="1">
          <mxGeometry width="50" height="50" relative="1" as="geometry">
            <mxPoint x="389.65999999999997" y="710" as="sourcePoint" />
            <mxPoint x="389.65999999999997" y="770" as="targetPoint" />
          </mxGeometry>
        </mxCell>
        <mxCell id="_dWFU71Mj2mj00j4ognk-32" value="Actual Application&lt;br&gt;Components" style="text;html=1;strokeColor=none;fillColor=none;align=center;verticalAlign=middle;whiteSpace=wrap;rounded=0;fontSize=19;" vertex="1" parent="1">
          <mxGeometry x="325" y="794" width="130" height="30" as="geometry" />
        </mxCell>
        <mxCell id="_dWFU71Mj2mj00j4ognk-33" value="" style="edgeStyle=orthogonalEdgeStyle;rounded=0;orthogonalLoop=1;jettySize=auto;html=1;entryX=0;entryY=0;entryDx=0;entryDy=60;entryPerimeter=0;endArrow=none;endFill=0;" edge="1" parent="1" source="_dWFU71Mj2mj00j4ognk-35" target="_dWFU71Mj2mj00j4ognk-17">
          <mxGeometry relative="1" as="geometry" />
        </mxCell>
        <mxCell id="_dWFU71Mj2mj00j4ognk-34" value="openID" style="edgeLabel;html=1;align=center;verticalAlign=middle;resizable=0;points=[];" vertex="1" connectable="0" parent="_dWFU71Mj2mj00j4ognk-33">
          <mxGeometry x="0.0323" y="2" relative="1" as="geometry">
            <mxPoint as="offset" />
          </mxGeometry>
        </mxCell>
        <mxCell id="_dWFU71Mj2mj00j4ognk-35" value="Nexus Cloud&lt;br&gt;&amp;lt;&amp;lt;Identity Provider&amp;gt;&amp;gt;" style="verticalAlign=top;align=left;shape=cube;size=10;direction=south;fontStyle=0;html=1;boundedLbl=1;spacingLeft=5;whiteSpace=wrap;fillColor=#d5e8d4;strokeColor=#82b366;dashed=1;" vertex="1" parent="1">
          <mxGeometry x="-80" y="315" width="150" height="50" as="geometry" />
        </mxCell>
        <mxCell id="_dWFU71Mj2mj00j4ognk-36" value="Helm Chart&lt;br&gt;v1.0.0" style="shape=note2;boundedLbl=1;whiteSpace=wrap;html=1;size=25;verticalAlign=top;align=left;spacingLeft=5;fillColor=#ffe6cc;strokeColor=#d79b00;" vertex="1" parent="1">
          <mxGeometry x="620" y="670" width="90" height="60" as="geometry" />
        </mxCell>
        <mxCell id="_dWFU71Mj2mj00j4ognk-37" value="" style="rounded=0;orthogonalLoop=1;jettySize=auto;html=1;entryX=0.25;entryY=1;entryDx=0;entryDy=0;endArrow=none;endFill=0;exitX=0;exitY=0;exitDx=32.5;exitDy=0;exitPerimeter=0;" edge="1" parent="1" source="_dWFU71Mj2mj00j4ognk-38" target="_dWFU71Mj2mj00j4ognk-9">
          <mxGeometry relative="1" as="geometry">
            <mxPoint x="260" y="610" as="targetPoint" />
          </mxGeometry>
        </mxCell>
        <mxCell id="_dWFU71Mj2mj00j4ognk-38" value="Helm Chart&lt;br&gt;v1.0.0" style="shape=note2;boundedLbl=1;whiteSpace=wrap;html=1;size=25;verticalAlign=top;align=left;spacingLeft=5;fillColor=#ffe6cc;strokeColor=#d79b00;" vertex="1" parent="1">
          <mxGeometry x="90" y="670" width="90" height="60" as="geometry" />
        </mxCell>
        <mxCell id="_dWFU71Mj2mj00j4ognk-39" value="" style="endArrow=none;html=1;rounded=0;entryX=0.75;entryY=1;entryDx=0;entryDy=0;exitX=0;exitY=0;exitDx=32.5;exitDy=0;exitPerimeter=0;" edge="1" parent="1" source="_dWFU71Mj2mj00j4ognk-36" target="_dWFU71Mj2mj00j4ognk-10">
          <mxGeometry width="50" height="50" relative="1" as="geometry">
            <mxPoint x="580" y="660" as="sourcePoint" />
            <mxPoint x="630" y="610" as="targetPoint" />
          </mxGeometry>
        </mxCell>
        <mxCell id="_dWFU71Mj2mj00j4ognk-40" value="Helm Chart&lt;br&gt;v1.0.0" style="shape=note2;boundedLbl=1;whiteSpace=wrap;html=1;size=25;verticalAlign=top;align=left;spacingLeft=5;fillColor=#ffe6cc;strokeColor=#d79b00;" vertex="1" parent="1">
          <mxGeometry x="280" y="255" width="90" height="60" as="geometry" />
        </mxCell>
        <mxCell id="_dWFU71Mj2mj00j4ognk-41" value="" style="endArrow=none;html=1;rounded=0;entryX=0.5;entryY=1;entryDx=0;entryDy=0;entryPerimeter=0;exitX=0;exitY=0;exitDx=5;exitDy=125;exitPerimeter=0;" edge="1" parent="1" source="_dWFU71Mj2mj00j4ognk-8" target="_dWFU71Mj2mj00j4ognk-40">
          <mxGeometry width="50" height="50" relative="1" as="geometry">
            <mxPoint x="100" y="240" as="sourcePoint" />
            <mxPoint x="150" y="190" as="targetPoint" />
          </mxGeometry>
        </mxCell>
        <mxCell id="_dWFU71Mj2mj00j4ognk-42" value="Helm Chart&lt;br&gt;v23.0.1" style="shape=note2;boundedLbl=1;whiteSpace=wrap;html=1;size=25;verticalAlign=top;align=left;spacingLeft=5;fillColor=#dae8fc;strokeColor=#6c8ebf;horizontal=1;" vertex="1" parent="1">
          <mxGeometry x="180" y="255" width="90" height="60" as="geometry" />
        </mxCell>
        <mxCell id="_dWFU71Mj2mj00j4ognk-43" value="" style="endArrow=none;html=1;rounded=0;entryX=0.5;entryY=1;entryDx=0;entryDy=0;entryPerimeter=0;exitX=0;exitY=0;exitDx=0;exitDy=60;exitPerimeter=0;" edge="1" parent="1" source="_dWFU71Mj2mj00j4ognk-17" target="_dWFU71Mj2mj00j4ognk-42">
          <mxGeometry width="50" height="50" relative="1" as="geometry">
            <mxPoint x="80" y="250" as="sourcePoint" />
            <mxPoint x="130" y="200" as="targetPoint" />
          </mxGeometry>
        </mxCell>
        <mxCell id="_dWFU71Mj2mj00j4ognk-44" value="Helm Chart&lt;br&gt;v12.11.2" style="shape=note2;boundedLbl=1;whiteSpace=wrap;html=1;size=25;verticalAlign=top;align=left;spacingLeft=5;fillColor=#dae8fc;strokeColor=#6c8ebf;horizontal=1;" vertex="1" parent="1">
          <mxGeometry x="680" y="280" width="90" height="60" as="geometry" />
        </mxCell>
        <mxCell id="_dWFU71Mj2mj00j4ognk-45" value="" style="endArrow=none;html=1;rounded=0;entryX=0;entryY=0.5;entryDx=0;entryDy=0;entryPerimeter=0;exitX=0;exitY=0;exitDx=0;exitDy=55;exitPerimeter=0;" edge="1" parent="1" source="_dWFU71Mj2mj00j4ognk-14" target="_dWFU71Mj2mj00j4ognk-44">
          <mxGeometry width="50" height="50" relative="1" as="geometry">
            <mxPoint x="430" y="260" as="sourcePoint" />
            <mxPoint x="480" y="210" as="targetPoint" />
          </mxGeometry>
        </mxCell>
      </root>
    </mxGraphModel>
  </diagram>
</mxfile>
